#!OML:ASF I:\Actors\actors\Patient Classification 2\Patient 1\Session 1\actor1.ASF
:FULLY-SPECIFIED
:DEGREES
626
root -0.645068 18.3187 6.04764 -9.02963 -11.5062 -2.92555
lowerback 17.6574 -2.51058 4.14487
upperback 8.15983 -2.58037 4.96067
thorax -1.07239 -1.31807 3.37506
lowerneck -10.9033 -3.29776 -1.78156
upperneck 30.947 -6.4333 5.85737
head 12.2606 -2.40793 1.63616
rclavicle 3.77691e-014 -3.65764e-014
rhumerus -13.4001 75.1468 -101.513
rradius 147.551
rwrist 3.5117
rhand -39.3159 -58.1114
rfingers 7.12502
rthumb -12.3083 -87.7292
lclavicle 3.77691e-014 -3.65764e-014
lhumerus 7.83663 -68.8608 92.4088
lradius 138.943
lwrist 20.3556
lhand -39.6316 -37.2638
lfingers 7.12502
lthumb -12.6126 -7.66455
rfemur 15.4866 6.38467 17.8358
rtibia 5.07994
rfoot -15.8618 -8.17494
rtoes -17.6113
lfemur 5.17432 4.77896 -10.3751
ltibia 29.0594
lfoot -23.9933 9.79285
ltoes -57.7991
627
root -0.645491 18.3092 6.08589 -9.23326 -11.4943 -3.00739
lowerback 16.8801 -2.49805 4.04513
upperback 8.22068 -2.644 5.02731
thorax -0.594613 -1.35176 3.4726
lowerneck -11.2013 -3.31675 -1.83974
upperneck 30.1728 -6.42363 6.014
head 12.0179 -2.39919 1.69247
rclavicle -7.95139e-016 2.06736e-014
rhumerus -14.5922 76.1331 -102.558
rradius 147.802
rwrist 4.70656
rhand -39.6141 -57.5975
rfingers 7.12502
rthumb -12.5957 -87.1978
lclavicle -7.95139e-016 2.06736e-014
lhumerus 9.81882 -68.4821 90.795
lradius 138.89
lwrist 20.791
lhand -39.1336 -36.7179
lfingers 7.12502
lthumb -12.1325 -7.08965
rfemur 15.7415 6.36894 17.9304
rtibia 5.31291
rfoot -16.0951 -8.06461
rtoes -17.1774
lfemur 5.52483 4.60307 -10.3251
ltibia 29.1009
lfoot -24.1964 9.82895
ltoes -57.6442
628
root -0.645993 18.3001 6.12212 -9.48786 -11.491 -3.08845
lowerback 16.6054 -2.48656 4.0234
upperback 8.0352 -2.63913 5.04323
thorax -0.64896 -1.3494 3.49164
lowerneck -11.1586 -3.3448 -1.71163
upperneck 29.4527 -6.45649 6.101
head 11.7238 -2.40515 1.69045
rclavicle 1.19271e-014 -2.8625e-014
rhumerus -4.50461 71.8342 -93.4087
rradius 148.117
rwrist -5.25494
rhand -40.5523 -52.7521
rfingers 7.12502
rthumb -13.5001 -82.2945
lclavicle 1.19271e-014 -2.8625e-014
lhumerus 10.5426 -68.0091 90.3315
lradius 138.808
lwrist 20.9826
lhand -38.246 -36.674
lfingers 7.12502
lthumb -11.2765 -6.99712
rfemur 16.0785 6.36161 18.0372
rtibia 5.48974
rfoot -16.2802 -7.97396
rtoes -16.8536
lfemur 5.94567 4.46989 -10.2581
ltibia 29.1122
lfoot -24.3221 9.84492
ltoes -57.5212
629
root -0.645618 18.2911 6.15627 -9.75062 -11.5251 -3.13624
lowerback 16.3104 -2.45936 3.91186
upperback 7.90235 -2.63189 5.09314
thorax -0.630411 -1.34917 3.59467
lowerneck -11.2034 -3.37995 -1.87924
upperneck 28.8554 -6.51414 6.43165
head 11.5213 -2.42152 1.82646
rclavicle 0 -1.43125e-014
rhumerus -2.94691 71.6198 -91.9961
rradius 148.065
rwrist -5.00287
rhand -40.3626 -52.3648
rfingers 7.12502
rthumb -13.3173 -81.9193
lclavicle 0 -1.43125e-014
lhumerus 11.7211 -67.913 89.4556
lradius 138.853
lwrist 21.7006
lhand -37.3022 -36.7522
lfingers 7.12502
lthumb -10.3661 -7.02772
rfemur 16.3972 6.39703 18.1128
rtibia 5.68769
rfoot -16.419 -7.87635
rtoes -16.8084
lfemur 6.38648 4.46149 -10.1957
ltibia 29.0828
lfoot -24.3871 9.88604
ltoes -57.6455
630
root -0.642229 18.2836 6.18774 -9.93747 -11.7038 -3.1424
lowerback 15.7505 -2.29732 3.72501
upperback 7.96274 -2.49262 5.10487
thorax -0.270548 -1.28363 3.66058
lowerneck -11.4391 -3.47259 -1.63715
upperneck 28.0305 -6.65594 6.53403
head 11.2546 -2.45945 1.78987
rclavicle 1.51076e-014 1.43125e-014
rhumerus -0.235569 71.0746 -89.5889
rradius 147.999
rwrist -4.93628
rhand -40.2536 -52.375
rfingers 7.12502
rthumb -13.2123 -81.9363
lclavicle 1.51076e-014 1.43125e-014
lhumerus 13.7683 -67.7461 87.7846
lradius 138.769
lwrist 21.736
lhand -36.8787 -36.6273
lfingers 7.12502
lthumb -9.95761 -6.88282
rfemur 16.5975 6.58277 18.1464
rtibia 5.85153
rfoot -16.512 -7.80982
rtoes -16.8068
lfemur 6.77329 4.49795 -10.2002
ltibia 29.0214
lfoot -24.5555 9.9613
ltoes -57.6494
631
root -0.635319 18.2791 6.22013 -10.0354 -11.9909 -3.07467
lowerback 15.4339 -2.19837 3.64788
upperback 7.82235 -2.38762 5.03697
thorax -0.259208 -1.23072 3.60353
lowerneck -11.6127 -3.47898 -1.32434
upperneck 27.3559 -6.6601 6.47934
head 11.0203 -2.44734 1.70563
rclavicle 2.18663e-014 9.54166e-015
rhumerus 1.71495 70.4287 -88.047
rradius 147.911
rwrist -4.97288
rhand -39.9809 -52.5617
rfingers 7.12502
rthumb -12.9493 -82.1399
lclavicle 2.18663e-014 9.54166e-015
lhumerus 14.866 -67.4703 86.8644
lradius 138.712
lwrist 21.6725
lhand -37.0518 -35.9503
lfingers 7.12502
lthumb -10.1246 -6.21388
rfemur 16.7312 6.89109 18.0881
rtibia 5.87428
rfoot -16.5815 -7.79068
rtoes -16.7341
lfemur 7.08896 4.51616 -10.3473
ltibia 28.9391
lfoot -24.7905 10.1739
ltoes -57.6222
632
root -0.629706 18.276 6.25564 -10.0523 -12.1167 -3.07631
lowerback 15.1579 -2.19818 3.73332
upperback 7.54503 -2.37663 4.97326
thorax -0.416116 -1.22018 3.47939
lowerneck -11.7734 -3.5231 -1.32278
upperneck 26.939 -6.73698 6.6512
head 10.9065 -2.46895 1.75053
rclavicle -1.15295e-014 -3.18055e-014
rhumerus 2.83207 69.9056 -87.2399
rradius 147.779
rwrist -5.11457
rhand -40.044 -52.0153
rfingers 7.12502
rthumb -13.0102 -81.5896
lclavicle -1.15295e-014 -3.18055e-014
lhumerus 15.4036 -67.3104 86.4769
lradius 138.691
lwrist 21.8428
lhand -36.6171 -35.5486
lfingers 7.12502
lthumb -9.70527 -5.79225
rfemur 16.9253 7.02266 18.0784
rtibia 5.72047
rfoot -16.5756 -7.80093
rtoes -16.7199
lfemur 7.31516 4.49614 -10.4166
ltibia 28.8399
lfoot -24.931 10.3275
ltoes -57.6867
